<svg width="800" height="303" viewBox="0 0 800 303" fill="none" xmlns="http://www.w3.org/2000/svg">
<g clip-path="url(#clip0_117_63)">
<path d="M773.186 26.875H743.097C742.667 26.875 742.247 26.6953 741.822 26.7172C736.577 22.2063 730.306 18.6719 723.283 16.8063C694.495 9.15627 650.536 0.218769 601.622 0.218769C552.708 0.218769 508.747 9.07346 479.961 16.7235C469.348 19.5399 460.063 25.9962 453.728 34.9641C437 24.3906 417.319 18.511 396.528 18.511C377.114 18.511 358.666 23.6266 342.688 32.9125C336.412 24.9818 327.739 19.2939 317.964 16.6985C289.177 9.04845 245.217 0.165649 196.303 0.165649C147.389 0.165649 103.428 9.27034 74.6422 16.9188C67.7839 18.7259 61.4539 22.1385 56.175 26.875H27.5C14.475 26.875 4.6875 36.9906 4.6875 50.0156V76.3047C4.6875 89.3297 14.475 100.313 27.5 100.313H39.0625V146.745C39.0625 233.189 109.498 303.264 195.941 303.264H196.273C282.717 303.264 353.125 233.188 353.125 146.745V86.925C364.062 74.5141 379.68 67.2063 396.784 67.2063C416.644 67.2063 434.375 77.05 445.312 93.3109V146.744C445.312 233.188 515.283 303.263 601.727 303.263H601.511C687.953 303.264 757.812 233.189 757.812 146.745V100.313H773.186C786.211 100.313 796.875 89.3297 796.875 76.3047V50.0156C796.875 36.9906 786.209 26.875 773.186 26.875Z" fill="black"/>
<path d="M73.3656 135.613C73.3656 135.613 73.0594 135.164 72.5547 134.322C71.8304 133.121 71.1706 131.883 70.5781 130.613C69.0203 127.372 67.1328 122.702 65.7266 116.848C64.9573 113.686 64.4019 110.476 64.0641 107.239C63.675 103.781 63.5594 100.056 63.6734 96.1703C63.8406 92.2688 64.2672 88.1922 65.1141 84.0219C65.9875 79.8469 67.1719 75.5891 68.8562 71.3657C70.5797 67.1532 72.6578 62.9844 75.2672 59.0719C77.8984 55.1719 80.8797 51.5157 84.2984 48.3922C87.6781 45.2625 91.3234 42.6032 95.0469 40.611C95.9797 40.1157 96.8812 39.6157 97.8016 39.1828C98.7422 38.7782 99.6547 38.3766 100.569 38.0203C102.364 37.2516 104.187 36.7438 105.909 36.2735C109.375 35.3891 112.567 34.9375 115.383 34.8672C118.183 34.6969 120.616 35 122.57 35.2204C124.53 35.4985 126.053 35.9266 127.078 36.1985C127.606 36.3421 128.128 36.5032 128.645 36.6813C129.768 37.0847 130.777 37.7522 131.588 38.6275C132.399 39.5028 132.987 40.5602 133.303 41.7106C133.619 42.861 133.654 44.0705 133.405 45.2372C133.155 46.4039 132.629 47.4935 131.87 48.4141L131.359 49.025L130.43 50.1438C129.834 50.8594 128.941 51.8063 127.897 52.9828C126.895 54.2453 125.625 55.5141 124.428 57.1235C123.825 57.925 123.134 58.6188 122.553 59.5266C121.961 60.4079 121.253 61.1375 120.705 62.1032C120.127 63.0219 119.48 63.85 118.947 64.8172C118.673 65.2907 118.377 65.7329 118.091 66.1844L117.3 67.6188C116.219 69.4875 115.267 71.4657 114.32 73.4735C113.348 75.4516 112.516 77.636 111.564 79.8078C110.641 82.0125 109.762 84.3969 108.839 86.8438C106.998 91.775 105.211 97.2329 103.283 102.702C102.359 105.456 101.358 108.173 100.394 110.853C99.4463 113.439 98.4535 116.008 97.4156 118.559C96.4835 120.847 95.5047 123.116 94.4797 125.364C93.5187 127.422 92.6281 129.269 91.8109 130.778C91.171 131.986 90.4999 133.178 89.7984 134.352C89.2906 135.191 88.9828 135.639 88.9828 135.639C87.5615 137.706 85.3773 139.124 82.9107 139.581C80.444 140.038 77.897 139.496 75.8297 138.075C74.8631 137.414 74.0276 136.579 73.3656 135.613ZM505.633 138.081C507.7 139.502 510.247 140.044 512.714 139.587C515.18 139.13 517.365 137.712 518.786 135.645C518.786 135.645 519.094 135.198 519.602 134.358C520.106 133.509 520.819 132.286 521.614 130.784C522.431 129.275 523.322 127.428 524.283 125.37C525.308 123.123 526.287 120.854 527.219 118.566C528.257 116.015 529.25 113.446 530.197 110.859C531.161 108.181 532.161 105.464 533.086 102.708C535.014 97.2407 536.802 91.7829 538.642 86.85C539.567 84.4032 540.445 82.0188 541.367 79.8141C542.319 77.6407 543.15 75.4563 544.123 73.4797C545.072 71.4719 546.022 69.4938 547.103 67.625L547.894 66.1907C548.181 65.7375 548.477 65.2969 548.75 64.8235C549.283 63.8563 549.93 63.0282 550.508 62.1094C551.056 61.1422 551.766 60.4141 552.356 59.5328C552.936 58.625 553.628 57.9297 554.231 57.1297C555.43 55.5204 556.698 54.2516 557.7 52.9891C558.744 51.8125 559.636 50.8657 560.233 50.15L561.163 49.0313L561.673 48.4203C562.432 47.4998 562.959 46.4102 563.208 45.2435C563.457 44.0768 563.423 42.8672 563.106 41.7169C562.79 40.5665 562.202 39.509 561.391 38.6337C560.581 37.7584 559.571 37.0909 558.448 36.6875C558.448 36.6875 557.908 36.4922 556.881 36.2047C555.856 35.9328 554.334 35.5047 552.373 35.2266C550.417 35.0063 547.984 34.7032 545.186 34.8735C542.37 34.9438 539.178 35.3953 535.712 36.2797C533.991 36.75 532.167 37.2578 530.372 38.0266C529.458 38.3828 528.545 38.7844 527.605 39.1891C526.684 39.6219 525.784 40.1219 524.85 40.6172C521.127 42.6078 517.481 45.2672 514.102 48.3985C510.683 51.5219 507.702 55.1782 505.07 59.0782C502.463 62.9907 500.383 67.1594 498.659 71.3719C496.975 75.5953 495.792 79.8532 494.917 84.0282C494.119 88.0335 493.637 92.0956 493.477 96.1766C493.361 100.063 493.478 103.788 493.867 107.245C494.205 110.482 494.76 113.693 495.53 116.855C496.936 122.708 498.823 127.378 500.381 130.619C500.974 131.889 501.634 133.128 502.358 134.328C502.863 135.169 503.169 135.619 503.169 135.619C503.836 136.58 504.671 137.414 505.633 138.081Z" fill="white"/>
</g>
<defs>
<clipPath id="clip0_117_63">
<rect width="800" height="303" fill="white"/>
</clipPath>
</defs>
</svg>
